<?xml version="1.0" encoding="iso-8859-1"?>
<!-- Uploaded to: SVG Repo, www.svgrepo.com, Generator: SVG Repo Mixer Tools -->
<svg version="1.1" id="Layer_1" xmlns="http://www.w3.org/2000/svg" xmlns:xlink="http://www.w3.org/1999/xlink" 
	 viewBox="0 0 512 512" xml:space="preserve">
<path style="fill:#D68231;" d="M364.886,124.154h-42.253v-16.385h42.253c7.246,0,13.141-5.895,13.141-13.141
	c0-7.246-5.895-13.141-13.141-13.141h-12.76V65.102h12.76c16.281,0,29.526,13.245,29.526,29.526S381.167,124.154,364.886,124.154z"
	/>
<g>
	<path style="fill:#FFB819;" d="M343.935,43.448c15.701,0,17.94,12.41,16.9,18.382c-8.708,50.012-52.331,88.035-104.835,88.035
		s-96.127-38.024-104.835-88.035c-1.04-5.971,1.198-18.382,16.9-18.382C168.064,43.448,343.935,43.448,343.935,43.448z"/>
	<rect x="31.422" y="166.496" style="fill:#FFB819;" width="449.152" height="294.508"/>
</g>
<rect x="31.422" y="296.387" style="opacity:0.1;enable-background:new    ;" width="47.331" height="22.778"/>
<rect x="106.176" y="229.939" style="opacity:0.1;enable-background:new    ;" width="47.331" height="22.778"/>
<rect x="252.038" y="222.752" style="opacity:0.1;enable-background:new    ;" width="47.331" height="22.778"/>
<rect x="179.058" y="180.718" style="opacity:0.1;enable-background:new    ;" width="47.331" height="22.778"/>
<rect x="433.247" y="255.249" style="opacity:0.1;enable-background:new    ;" width="47.331" height="22.777"/>
<rect x="425.437" y="395.212" style="opacity:0.1;enable-background:new    ;" width="47.331" height="22.778"/>
<rect x="325.935" y="416.523" style="opacity:0.1;enable-background:new    ;" width="47.331" height="22.777"/>
<rect x="241.89" y="352.184" style="opacity:0.1;enable-background:new    ;" width="47.331" height="22.778"/>
<rect x="50.972" y="414.339" style="opacity:0.1;enable-background:new    ;" width="47.331" height="22.777"/>
<path style="fill:#00B3E3;" d="M21.145,177.951V192.5c0,18.529,15.021,33.55,33.55,33.55s33.55-15.021,33.55-33.55v-14.549H21.145z"
	/>
<path style="fill:#FFFFFF;" d="M88.246,177.951V192.5c0,18.529,15.021,33.55,33.55,33.55s33.55-15.021,33.55-33.55v-14.549H88.246z"
	/>
<path style="fill:#00B3E3;" d="M155.347,177.951V192.5c0,18.529,15.022,33.55,33.55,33.55c18.53,0,33.55-15.021,33.55-33.55v-14.549
	H155.347z"/>
<path style="fill:#FFFFFF;" d="M222.449,177.951V192.5c0,18.529,15.021,33.55,33.55,33.55s33.55-15.021,33.55-33.55v-14.549H222.449
	z"/>
<path style="fill:#00B3E3;" d="M289.551,177.951V192.5c0,18.529,15.021,33.55,33.55,33.55c18.53,0,33.55-15.021,33.55-33.55v-14.549
	H289.551z"/>
<path style="fill:#FFFFFF;" d="M356.652,177.951V192.5c0,18.529,15.021,33.55,33.55,33.55c18.53,0,33.55-15.021,33.55-33.55v-14.549
	H356.652z"/>
<path style="fill:#00B3E3;" d="M423.754,177.951V192.5c0,18.529,15.021,33.55,33.55,33.55c18.53,0,33.55-15.021,33.55-33.55v-14.549
	H423.754z"/>
<path style="fill:#333E48;" d="M499.45,181.18c0,6.008-4.916,10.923-10.923,10.923H23.472c-6.008,0-10.923-4.916-10.923-10.923
	v-25.687c0-6.008,4.916-10.923,10.923-10.923h465.053c6.008,0,10.923,4.916,10.923,10.923v25.687H499.45z"/>
<rect x="277.566" y="266.631" style="fill:#FFFFFF;" width="147.696" height="194.372"/>
<rect x="303.607" y="294.552" style="fill:#00B3E3;" width="95.613" height="68.654"/>
<rect x="328.742" y="316.322" style="fill:#FFFFFF;" width="45.352" height="16.385"/>
<g>
	<circle style="fill:#333E48;" cx="311.778" cy="395.299" r="8.165"/>
	<path style="fill:#333E48;" d="M512,464.139c0,2.427-1.984,4.413-4.412,4.413H4.412c-2.427,0-4.412-1.986-4.412-4.413v-15.792
		c0-2.427,1.985-4.413,4.412-4.413h503.176c2.428,0,4.412,1.986,4.412,4.413V464.139z"/>
</g>
<rect x="256.844" y="443.93" style="fill:#A4A9AD;" width="189.14" height="24.618"/>
<rect x="67.321" y="266.631" style="fill:#333E48;" width="174.339" height="120.497"/>
<polygon style="fill:#00B3E3;" points="177.329,295.944 131.659,295.944 121.637,330.718 187.35,330.718 "/>
<rect x="146.298" y="266.631" style="fill:#FFFFFF;" width="16.385" height="29.311"/>
<g>
	<path style="fill:#00B3E3;" d="M91.601,387.13v-23.925c0-4.525,3.668-8.193,8.193-8.193c4.525,0,8.193,3.668,8.193,8.193v23.924
		H91.601V387.13z"/>
	<path style="fill:#00B3E3;" d="M201.001,387.13v-23.925c0-4.525,3.668-8.193,8.193-8.193s8.193,3.668,8.193,8.193v23.924h-16.385
		V387.13z"/>
</g>
</svg>