<?xml version="1.0" encoding="iso-8859-1"?>
<!-- Uploaded to: SVG Repo, www.svgrepo.com, Generator: SVG Repo Mixer Tools -->
<svg height="800px" width="800px" version="1.1" id="Layer_1" xmlns="http://www.w3.org/2000/svg" xmlns:xlink="http://www.w3.org/1999/xlink" 
	 viewBox="0 0 512 512" xml:space="preserve">
<g>
	<path style="fill:#391B10;" d="M200.141,407.407c0,4.917-3.985,8.904-8.901,8.904H8.901c-4.916,0-8.901-3.987-8.901-8.904
		s3.985-8.904,8.901-8.904h182.338C196.155,398.503,200.141,402.489,200.141,407.407z M8.901,113.497h182.338
		c4.916,0,8.901-3.987,8.901-8.904c0-4.917-3.985-8.904-8.901-8.904H8.901C3.985,95.688,0,99.675,0,104.593
		C0,109.51,3.985,113.497,8.901,113.497z"/>
	<path style="fill:#391B10;" d="M77.139,198.753C108.989,79.846,230.43,9.084,348.388,40.702
		c117.956,31.617,187.757,153.639,155.907,272.545c-31.851,118.908-153.292,189.668-271.246,158.052
		C115.09,439.681,45.289,317.659,77.139,198.753L77.139,198.753z"/>
</g>
<path style="fill:#663310;" d="M109.357,207.388c27.046-100.97,130.167-161.057,230.332-134.21
	c100.163,26.848,159.435,130.463,132.389,231.433c-27.046,100.97-130.167,161.057-230.33,134.21
	C141.584,411.973,82.311,308.359,109.357,207.388L109.357,207.388z"/>
<path style="fill:#967342;" d="M17.803,8.904v494.191c0,4.917-3.985,8.904-8.901,8.904C3.985,512,0,508.013,0,503.096V8.904
	C0,3.987,3.985,0,8.901,0S17.803,3.987,17.803,8.904z"/>
<path style="fill:#DDC98B;" d="M405.433,368.263c0,4.917-3.985,8.904-8.901,8.904H182.338c-4.916,0-8.901-3.987-8.901-8.904
	c0-4.917,3.985-8.904,8.901-8.904h214.193C401.448,359.358,405.433,363.345,405.433,368.263z M439.681,216.151v14.204
	c0,21.191-17.133,38.432-38.192,38.432h-15.308c-11.618,31.258-41.57,53.572-76.607,53.572h-40.282
	c-45.09,0-81.774-36.949-81.774-82.365v-73.461c0-4.917,3.985-8.904,8.901-8.904h55.037h6.743h5.807
	c8.769-14.082,8.292-34.298-1.685-43.685c-3.582-3.368-3.755-9.003-0.387-12.586c3.367-3.583,9.001-3.757,12.582-0.387
	c19.42,18.267,16.151,52.135,1.072,71.106c-10.428,13.118-13.102,36.244-1.073,47.557c3.582,3.368,3.755,9.003,0.388,12.586
	c-1.752,1.864-4.116,2.806-6.487,2.806c-2.186,0-4.376-0.8-6.095-2.416c-9.05-8.51-13.833-21.131-13.47-35.541
	c0.187-7.398,1.756-14.81,4.49-21.63h-48.019v64.557c0,35.596,28.698,64.557,63.972,64.557h40.282
	c35.275,0,63.972-28.96,63.972-64.557v-53.37v-11.187h-49.319c-4.916,0-8.901-3.987-8.901-8.904c0-4.917,3.985-8.904,8.901-8.904
	h58.22c4.916,0,8.901,3.987,8.901,8.904v11.187h10.141C422.549,177.72,439.681,194.96,439.681,216.151z M421.879,216.151
	c0-11.372-9.146-20.622-20.39-20.622h-10.141v44.465v10.985h10.141c11.243,0,20.39-9.252,20.39-20.624V216.151z"/>
</svg>