<?xml version="1.0" encoding="iso-8859-1"?>
<!-- Uploaded to: SVG Repo, www.svgrepo.com, Generator: SVG Repo Mixer Tools -->
<svg height="800px" width="800px" version="1.1" id="Layer_1" xmlns="http://www.w3.org/2000/svg" xmlns:xlink="http://www.w3.org/1999/xlink" 
	 viewBox="0 0 511.939 511.939" xml:space="preserve">
<circle style="fill:#FFE356;" cx="255.969" cy="255.969" r="255.969"/>
<path style="fill:#ECF0F1;" d="M95.299,142.273h267.13v346.546c-32.441,14.841-68.5,23.119-106.46,23.119
	c-60.834,0-116.762-21.28-160.671-56.725V142.273z"/>
<path style="fill:#C6CBD6;" d="M121.546,340.229c-0.92,0.613-2.146,0.307-2.76-0.613c-0.613-0.92-0.307-2.146,0.613-2.76
	l99.346-62.858c0.675-0.429,1.533-0.368,2.208,0.061l98.181,63.839c0.92,0.613,1.165,1.84,0.613,2.76
	c-0.613,0.92-1.84,1.165-2.76,0.613l-97.2-63.164l-98.242,62.183V340.229z"/>
<polygon style="fill:#FFFFFF;" points="107.012,335.875 332.687,335.875 332.687,427.433 107.012,427.433 "/>
<g>
	<path style="fill:#C6CBD6;" d="M95.299,252.351v-97.568h27.964v55.805C123.263,230.274,111.427,247.077,95.299,252.351z"/>
	<path style="fill:#C6CBD6;" d="M123.263,154.784H200.9v55.805c0,57.461-77.637,57.461-77.637,0V154.784z"/>
	<path style="fill:#C6CBD6;" d="M200.9,154.784h77.637v55.805c0,57.461-77.637,57.461-77.637,0V154.784z"/>
	<path style="fill:#C6CBD6;" d="M278.537,154.784h77.637v55.805c0,57.461-77.637,57.461-77.637,0V154.784z"/>
</g>
<g>
	<path style="fill:#ECF0F1;" d="M362.429,154.784v79.477c-3.986-6.807-6.255-14.963-6.255-23.671v-55.805H362.429z"/>
	<path style="fill:#ECF0F1;" d="M95.299,142.273h27.657c0.123,4.415,0.184,8.769,0.245,13.185H95.237v-13.185H95.299z"/>
	<path style="fill:#ECF0F1;" d="M123.017,142.273h76.104c0.736,4.415,1.288,8.769,1.778,13.185c-25.94,0-51.758,0-77.637,0
		C123.201,151.043,123.079,146.689,123.017,142.273z"/>
	<path style="fill:#ECF0F1;" d="M199.06,142.273h76.104c1.288,4.415,2.453,8.769,3.312,13.185c-25.94,0-51.758,0-77.637,0
		C200.348,151.043,199.735,146.689,199.06,142.273z"/>
	<path style="fill:#ECF0F1;" d="M275.164,142.273h76.104c1.901,4.415,3.557,8.769,4.845,13.185c-25.94,0-51.758,0-77.637,0
		C277.556,151.043,276.452,146.689,275.164,142.273z"/>
	<path style="fill:#ECF0F1;" d="M351.268,142.273h11.222v13.185h-6.316c-1.288-4.415-2.944-8.769-4.845-13.185H351.268z"/>
</g>
<path style="fill:#6B7F9E;" d="M95.299,142.273H72.424v292.09c7.175,7.42,14.841,14.411,22.874,20.912v-312.94V142.273z"/>
<path style="fill:#5D718F;" d="M72.424,154.784v97.138c7.42,2.76,15.393,2.882,22.874,0.429v-97.568H72.424z"/>
<g>
	<polygon style="fill:#6B7F9E;" points="95.299,142.273 72.424,142.273 72.424,155.458 95.299,155.458 	"/>
	<path style="fill:#6B7F9E;" d="M385.364,142.273H362.49v346.546c7.85-3.618,15.515-7.604,22.874-11.958V142.212V142.273z"/>
</g>
<path style="fill:#5D718F;" d="M362.429,154.784v79.477c5.213,9.015,13.369,15.76,22.874,18.459v-97.936H362.429z"/>
<polygon style="fill:#6B7F9E;" points="385.364,142.273 362.429,142.273 362.429,155.458 385.364,155.458 "/>
<path style="fill:#ECF0F1;" d="M72.424,142.273h-45.81C9.628,176.554,0,215.127,0,255.969c0,69.358,27.596,132.277,72.424,178.394
	V142.273z"/>
<g>
	<path style="fill:#C6CBD6;" d="M26.922,154.784h18.704v55.805c0,23.917-17.478,43.479-38.819,43.479l0,0
		c-2.146,0-4.293-0.184-6.378-0.613c2.146-35.323,11.406-68.684,26.431-98.733L26.922,154.784z"/>
	<path style="fill:#C6CBD6;" d="M72.424,251.922v-97.138H45.687v55.805C45.687,229.784,56.971,246.219,72.424,251.922z"/>
</g>
<g>
	<path style="fill:#ECF0F1;" d="M46.913,142.273H33.606c-2.453,4.293-4.783,8.708-7.052,13.185h19.011
		c0.368-4.415,0.797-8.769,1.288-13.185H46.913z"/>
	<path style="fill:#ECF0F1;" d="M72.424,142.273H46.913c-0.491,4.415-0.92,8.769-1.288,13.185h26.799V142.273z"/>
</g>
<path style="fill:#E4E7ED;" d="M26.922,141.599h18.704v55.805c0,23.917-17.478,43.479-38.819,43.479l0,0
	c-2.146,0-4.293-0.184-6.378-0.613c2.146-35.323,11.406-68.684,26.431-98.733L26.922,141.599z"/>
<path style="fill:#F7635B;" d="M45.687,141.599h77.637v55.805c0,23.917-17.478,43.479-38.819,43.479l0,0
	c-21.341,0-38.819-19.563-38.819-43.479V141.599z"/>
<path style="fill:#E4E7ED;" d="M123.263,141.599H200.9v55.805c0,23.917-17.478,43.479-38.819,43.479l0,0
	c-21.341,0-38.819-19.563-38.819-43.479V141.599z"/>
<path style="fill:#F7635B;" d="M200.9,141.599h77.637v55.805c0,23.917-17.478,43.479-38.819,43.479l0,0
	c-21.341,0-38.819-19.563-38.819-43.479V141.599z"/>
<path style="fill:#E4E7ED;" d="M278.537,141.599h77.637v55.805c0,23.917-17.478,43.479-38.819,43.479l0,0
	c-21.341,0-38.819-19.563-38.819-43.479V141.599z"/>
<path style="fill:#F7635B;" d="M356.174,141.599h77.637v55.805c0,23.917-17.478,43.479-38.819,43.479l0,0
	c-21.341,0-38.819-19.563-38.819-43.479V141.599z"/>
<path style="fill:#FFFFFF;" d="M50.838,102.842c-2.392,13.123-4.17,26.308-5.213,39.432H26.615
	C33.545,128.353,41.639,115.168,50.838,102.842z"/>
<path style="fill:#FF7069;" d="M119.645,39.309c0.307,8.463,0.675,16.987,1.104,25.45c1.226,25.818,2.085,51.697,2.514,77.514
	c-25.94,0-51.758,0-77.637,0c1.043-13.123,2.821-26.308,5.213-39.432C69.665,77.698,92.968,56.112,119.645,39.309z"/>
<path style="fill:#FFFFFF;" d="M168.336,15.393c3.496,16.435,8.34,32.931,13.982,49.366c8.892,25.879,15.699,51.697,18.581,77.514
	c-25.94,0-51.758,0-77.637,0c-0.429-25.818-1.288-51.697-2.514-77.514c-0.429-8.463-0.797-16.926-1.104-25.45
	C134.853,29.681,151.165,21.648,168.336,15.393z"/>
<path style="fill:#FF7069;" d="M213.533,3.496c6.562,20.421,17.232,40.842,30.356,61.263c16.558,25.818,29.252,51.697,34.587,77.514
	c-25.94,0-51.758,0-77.637,0c-2.882-25.818-9.689-51.697-18.581-77.514c-5.642-16.435-10.487-32.87-13.982-49.366
	C182.809,10.119,197.895,6.071,213.533,3.496z"/>
<path style="fill:#FFFFFF;" d="M259.587,0.061c9.321,21.586,25.695,43.111,45.932,64.698c24.285,25.818,42.805,51.697,50.593,77.514
	c-25.94,0-51.758,0-77.637,0c-5.335-25.818-18.029-51.697-34.587-77.514c-13.123-20.421-23.794-40.842-30.356-61.263
	C227.331,1.165,241.497,0,255.969,0C257.196,0,258.361,0.061,259.587,0.061z"/>
<g>
	<path style="fill:#FF7069;" d="M310.18,5.765c12.694,19.685,32.747,39.309,57.032,58.994c31.95,25.818,56.419,51.697,66.599,77.514
		c-25.94,0-51.819,0-77.698,0c-7.788-25.818-26.308-51.697-50.593-77.514c-20.298-21.586-36.611-43.111-45.932-64.698
		C276.942,0.307,293.868,2.269,310.18,5.765z"/>
	<polygon style="fill:#FF7069;" points="123.631,342.621 316.006,342.621 316.006,420.688 123.631,420.688 	"/>
</g>
<g>
	<circle style="fill:#FFFFFF;" cx="219.849" cy="275.716" r="12.449"/>
	<path style="fill:#FFFFFF;" d="M156.869,397.813c0,1.962,0.429,3.373,1.288,4.17c0.859,0.797,1.962,1.227,3.434,1.227
		c1.41,0,2.576-0.429,3.434-1.227c0.859-0.797,1.288-2.208,1.288-4.17v-29.62c0-1.962-0.429-3.373-1.288-4.17
		c-0.859-0.797-1.962-1.227-3.434-1.227c-1.41,0-2.576,0.429-3.434,1.227c-0.859,0.797-1.288,2.208-1.288,4.17V397.813z
		 M147.854,368.745c0-4.415,1.165-7.85,3.557-10.241c2.33-2.392,5.765-3.557,10.18-3.557s7.85,1.165,10.18,3.557
		s3.557,5.765,3.557,10.241v28.516c0,4.415-1.165,7.85-3.557,10.241c-2.33,2.392-5.765,3.557-10.18,3.557s-7.85-1.165-10.18-3.557
		s-3.557-5.765-3.557-10.241V368.745z M201.268,355.561c4.538,0,7.911,1.165,10.119,3.434c2.208,2.269,3.312,5.642,3.312,10.119
		v7.114c0,4.415-1.104,7.788-3.312,10.119c-2.208,2.269-5.581,3.434-10.119,3.434h-4.293v20.605h-9.015v-54.824H201.268z
		 M196.975,363.41v18.581h4.293c1.41,0,2.514-0.368,3.312-1.104c0.736-0.736,1.165-2.085,1.165-4.047v-8.217
		c0-1.962-0.368-3.312-1.165-4.047c-0.797-0.736-1.84-1.104-3.312-1.104h-4.293V363.41z M235.242,378.68h12.388v7.85h-12.388v16.067
		h15.576v7.85h-24.653v-54.824h24.653v7.85h-15.576v15.27V378.68z M271.362,370.708v39.738h-8.156v-54.824h11.345l9.26,32.809
		v-32.809h8.034v54.824h-9.26L271.362,370.708z"/>
</g>
<circle style="fill:#83CF8F;" cx="219.849" cy="275.716" r="9.076"/>
<path style="fill:#C6CBD6;" d="M116.578,339.126c1.656,0,2.944,1.349,2.944,2.944c0,1.656-1.349,2.944-2.944,2.944
	c-1.656,0-2.944-1.349-2.944-2.944C113.635,340.413,114.984,339.126,116.578,339.126z M323.12,339.126
	c1.656,0,2.944,1.349,2.944,2.944c0,1.656-1.349,2.944-2.944,2.944c-1.656,0-2.944-1.349-2.944-2.944
	C320.176,340.413,321.525,339.126,323.12,339.126z"/>
</svg>