<?xml version="1.0" encoding="iso-8859-1"?>
<!-- Uploaded to: SVG Repo, www.svgrepo.com, Generator: SVG Repo Mixer Tools -->
<svg height="800px" width="800px" version="1.1" id="Layer_1" xmlns="http://www.w3.org/2000/svg" xmlns:xlink="http://www.w3.org/1999/xlink" 
	 viewBox="0 0 512 512" xml:space="preserve">
<path style="fill:#97BAA8;" d="M135.539,440.411h179.338v62.837H135.539V440.411L135.539,440.411z"/>
<path style="fill:#B1D7C5;" d="M314.877,456.68H135.539L113.777,76.489h52.103h171.077L314.877,456.68z"/>
<path style="fill:#DDC98B;" d="M332.708,149.658l-17.83,307.022H135.539l-17.573-307.022H332.708z"/>
<path style="fill:#FFFFFF;" d="M169.724,408.685v-42.784h43.511v42.784H169.724L169.724,408.685z M251.578,361.791l31.313-29.707
	l-30.212-30.79l-31.313,29.705L251.578,361.791L251.578,361.791z"/>
<path style="fill:#874D20;" d="M336.425,9.837L336.425,9.837c33.99,0,61.797,27.341,61.797,60.761v24.305
	c0,33.419-27.808,60.761-61.797,60.761l0,0c-33.989,0-61.791-27.342-61.791-60.761V70.598
	C274.634,37.178,302.436,9.837,336.425,9.837L336.425,9.837z"/>
<path style="fill:#663310;" d="M398.222,70.598v24.305c0,33.235-27.504,60.447-61.237,60.746c-0.003-0.143-0.061-0.286-0.175-0.389
	c-19.816-18.18-15.741-52.79,0.31-72.48c15.962-19.583,19.306-54.745,0.12-72.923C370.856,10.291,398.222,37.447,398.222,70.598z"/>
<path d="M213.235,357.149h-43.511c-4.833,0-8.752,3.919-8.752,8.752v42.783c0,4.833,3.919,8.752,8.752,8.752h43.511
	c4.833,0,8.752-3.919,8.752-8.752v-42.783C221.988,361.068,218.069,357.149,213.235,357.149z M204.483,399.933h-26.007v-25.278
	h26.007V399.933z M246.655,294.946l-31.313,29.705c-1.702,1.616-2.686,3.847-2.727,6.192c-0.043,2.347,0.86,4.611,2.503,6.286
	l30.212,30.792c1.712,1.746,3.979,2.622,6.248,2.622c2.164,0,4.331-0.798,6.023-2.402l31.314-29.707
	c1.703-1.616,2.686-3.847,2.727-6.192c0.043-2.347-0.86-4.612-2.504-6.287l-30.212-30.79
	C255.581,291.757,250.12,291.658,246.655,294.946z M251.797,349.52l-17.951-18.296l18.613-17.656l17.951,18.294L251.797,349.52z
	 M336.426,1.084c-37.924,0-68.941,29.646-70.47,66.653h-90.877l-3.582-59.518c-0.29-4.82-4.44-8.494-9.261-8.203
	c-4.825,0.29-8.502,4.432-8.211,9.252l3.518,58.47h-43.767c-2.408,0-4.71,0.992-6.363,2.743c-1.653,1.752-2.512,4.106-2.374,6.509
	l4.188,73.167v0.002l17.559,306.769v46.32c0,4.833,3.918,8.752,8.752,8.752h179.338c4.834,0,8.752-3.919,8.752-8.752v-46.319
	l16.996-292.647c36.952-2.15,66.349-32.44,66.349-69.379V70.598C406.974,32.268,375.326,1.084,336.426,1.084z M283.386,70.598
	c0-27.499,21.881-50.069,49.466-51.878c11.936,14.096,10.88,41.235-2.943,58.194c-14.19,17.408-20.086,45.046-11.73,66.825
	c-20.284-7.31-34.792-26.443-34.792-48.837V70.598H283.386z M265.882,85.241v9.661c0,33.859,24.701,62.126,57.274,68.262
	l-16.537,284.763H143.805L127.234,158.41H163l9.417,156.488c0.279,4.641,4.134,8.218,8.727,8.218c0.177,0,0.354-0.005,0.534-0.016
	c4.825-0.29,8.502-4.432,8.211-9.251l-9.354-155.44h77.348c4.834,0,8.752-3.919,8.752-8.752c0-4.833-3.918-8.752-8.752-8.752
	h-78.402l-3.35-55.665h89.75V85.241z M158.597,85.241l3.35,55.665h-35.715l-3.186-55.665H158.597z M306.125,494.496H144.292v-29.064
	h161.834V494.496z M389.47,94.902c0,27.495-21.878,50.061-49.459,51.876c-13.239-15.328-9.521-42.884,3.472-58.824
	c9.404-11.536,14.921-27.195,15.137-42.959c0.115-8.395-1.242-16.246-3.932-23.229c20.279,7.313,34.782,26.442,34.782,48.831V94.902
	z"/>
</svg>